<?xml version="1.0" encoding="UTF-8" standalone="no"?>
<!-- Generator: Adobe Illustrator 25.2.3, SVG Export Plug-In . SVG Version: 6.00 Build 0)  -->

<svg
   version="1.1"
   id="Layer_3"
   x="0px"
   y="0px"
   viewBox="0 0 128 128"
   style="enable-background:new 0 0 128 128;"
   xml:space="preserve"
   sodipodi:docname="emoji_u1f331.svg"
   inkscape:version="1.3.2 (1:1.3.2+202311252150+091e20ef0f)"
   xmlns:inkscape="http://www.inkscape.org/namespaces/inkscape"
   xmlns:sodipodi="http://sodipodi.sourceforge.net/DTD/sodipodi-0.dtd"
   xmlns="http://www.w3.org/2000/svg"
   xmlns:svg="http://www.w3.org/2000/svg"><defs
   id="defs5" /><sodipodi:namedview
   id="namedview5"
   pagecolor="#ffffff"
   bordercolor="#666666"
   borderopacity="1.0"
   inkscape:showpageshadow="2"
   inkscape:pageopacity="0.0"
   inkscape:pagecheckerboard="0"
   inkscape:deskcolor="#d1d1d1"
   inkscape:zoom="6.3359375"
   inkscape:cx="63.921085"
   inkscape:cy="64"
   inkscape:window-width="1920"
   inkscape:window-height="1051"
   inkscape:window-x="1920"
   inkscape:window-y="0"
   inkscape:window-maximized="1"
   inkscape:current-layer="Layer_3" />




<g
   id="g5"><path
     id="path1"
     style="fill:#99C23B;"
     d="M 117.04297 7.1191406 C 114.92922 7.0928907 111.93468 7.3293755 107.67969 7.859375 C 99.959695 8.819374 90.330381 12.019307 80.900391 21.779297 C 71.0604 31.969287 66.779297 45.400391 66.779297 45.400391 L 66.779297 45.40625 L 66.769531 45.400391 C 66.769531 45.400391 56.699754 34.289449 45.509766 30.189453 C 33.909777 25.939457 20.799132 25.610864 11.869141 30.380859 C 6.2691462 33.380856 3.1804686 36.080782 2.9804688 37.050781 C 2.6104691 38.880779 12.269706 60.359147 30.929688 67.119141 C 46.110804 72.627868 60.605327 69.816698 66.796875 68.111328 C 67.743827 71.405005 69.900937 80.415094 69.070312 92.130859 C 68.060314 106.40085 64.270468 113.61914 63.230469 116.11914 C 62.19047 118.61914 59.270473 121.75 63.230469 123 C 67.190465 124.25 73.869065 123.63008 76.789062 122.58008 C 79.70906 121.54008 81.159844 115.74039 81.589844 113.40039 C 82.639843 107.6104 83.219842 96.659364 81.089844 85.859375 C 79.64514 78.502906 77.076088 67.820174 76.439453 65.183594 C 76.85002 65.158978 77.256466 65.136091 77.710938 65.089844 C 87.940927 64.039845 97.280638 61.67069 110.39062 48.470703 C 122.67061 36.090716 122.27984 22.55913 122.08984 12.119141 C 122.05984 10.659142 122.57914 9.0109365 121.11914 7.9609375 C 120.38914 7.435938 119.15672 7.1453906 117.04297 7.1191406 z " /><path
     style="fill:#E6DC9F;"
     d="M86.68,30.68c-9.3,11.02-13.99,22.13-14.48,25.03s1.12,2.78,2.03,1.55  c1.64-2.22,7.35-12.37,15.85-22.04c7.36-8.36,18.56-17.4,20.2-19.33c1.02-1.2-0.1-2.71-1.64-2.03  C107.1,14.53,96.19,19.41,86.68,30.68z"
     id="path4" /><path
     style="fill:#E6DC9F;"
     d="M41.43,41c-13.6-4.68-23.55-4.05-25.58-3.37c-2.03,0.68-1.93,2.9,0.48,3.19s12.24,1.27,24.56,5.7  c13.15,4.74,22.52,11.89,24.17,12.86c1.64,0.97,2.71-0.97,1.26-2.71C65.21,55.36,56.43,46.16,41.43,41z"
     id="path5" /></g>
</svg>
